# xmcd
#
# Track frame offsets:
#	150
#	11057
#	25480
#	38332
#	53410
#	65642
#	79237
#	93137
#	105365
#	119967
#	135282
#	148985
#	161327
#	173720
#
# Disc length: 2480 seconds
#
# Revision: 1
# Processed by: cddbd v1.5.1PL0 Copyright (c) Steve Scherf et al.
# Submitted via: audiograbber 1.83.01
#
DISCID=b009ae0e
DTITLE=Tom Astor - Der Deutsche Country-S‰nger Tom Astor
DYEAR=1900
DGENRE=Country
TTITLE0=Zwei Trucker, wie wir (Larry Schuba)
TTITLE1=Mein Daddy
TTITLE2=Ein richtiger Mann ist immer unterwegs
TTITLE3=Halt Abstand Junge
TTITLE4=Dieser Hintern hat das Zeug zu einem Weltstar
TTITLE5=Tausend Tr‰ume auf Asphalt
TTITLE6=Tom Dooley
TTITLE7=Ich bin ein Asphalt-Cowboy
TTITLE8=Disco, Western, Rodeo
TTITLE9=Und in Hamburg sitzt Gabi
TTITLE10=Krawattentrucker Erwin
TTITLE11=Zwischen Mitternacht und Morgen
TTITLE12=Am Rand der Straﬂe
TTITLE13=Hier riecht's nach Freiheit (Five Miles From Houston)
EXTD=
EXTT0=
EXTT1=
EXTT2=
EXTT3=
EXTT4=
EXTT5=
EXTT6=
EXTT7=
EXTT8=
EXTT9=
EXTT10=
EXTT11=
EXTT12=
EXTT13=
PLAYORDER=
